<svg width="50" height="50" viewBox="0 0 50 50" fill="none" xmlns="http://www.w3.org/2000/svg">
<path d="M36.6153 0H13.3847C5.99269 0 0 5.99269 0 13.3847V36.6153C0 44.0073 5.99269 50 13.3847 50H36.6153C44.0073 50 50 44.0073 50 36.6153V13.3847C50 5.99269 44.0073 0 36.6153 0ZM37.5682 33.3796H30.9256C29.8154 33.3796 28.7492 32.9378 27.9628 32.1514L25 29.1886L22.0372 32.1514C21.2508 32.9378 20.1869 33.3796 19.0744 33.3796H12.4318V16.6227H16.6204V29.191H17.8486C18.4036 29.191 18.9379 28.9712 19.3288 28.578L23.5174 24.3894C24.3362 23.5706 25.6615 23.5706 26.4802 24.3894L30.6689 28.578C31.0621 28.9712 31.594 29.191 32.1491 29.191H33.3773V16.6227H37.5659V33.3796H37.5682Z" fill="#1DD882"/>
</svg>
