<svg width="235" height="22" viewBox="0 0 235 22" fill="none" xmlns="http://www.w3.org/2000/svg">
<path d="M235 0.297501V5.94834C235 7.31358 234.461 8.62749 233.496 9.59239L222.097 21.0583H216.939L205.54 9.59239C204.575 8.62235 204.036 7.31358 204.036 5.94834V0.297501H209.045V4.3932C209.045 5.08095 209.317 5.73791 209.805 6.22549L219.423 15.8078L229.041 6.22549C229.529 5.73791 229.801 5.08095 229.801 4.3932V0.297501H234.99H235Z" fill="#1DD882"/>
<path d="M161.816 0.297501H136.026V21.0583H161.816C164.67 21.0583 166.99 18.7436 166.99 15.8848V5.47102C166.99 2.61737 164.675 0.297501 161.816 0.297501ZM161.796 15.8694H141.035V5.48642H161.796V15.8694Z" fill="#1DD882"/>
<path d="M132.982 0.297501V15.8899C132.982 18.7436 130.667 21.0634 127.809 21.0634H107.186C104.333 21.0634 102.013 18.7487 102.013 15.8899V13.3647H107.202V15.8694H127.783V10.6805H107.166C105.257 10.6805 103.594 9.63858 102.701 8.08344C102.259 7.31871 102.013 6.43592 102.013 5.48642V0.297501H107.202V5.48642H127.783V0.297501H132.972H132.982Z" fill="#1DD882"/>
<path d="M73.2043 5.48642V7.99106H98.9795V13.3596H73.2043V15.8643H98.9795V21.0532H73.1889C70.3353 21.0532 68.0154 18.7384 68.0154 15.8797V5.47102C68.0154 2.61737 70.3301 0.297501 73.1889 0.297501H98.9795V5.48642H73.2043Z" fill="#1DD882"/>
<path d="M175.222 5.48642V7.99106H200.997V13.3596H175.222V15.8643H200.997V21.0532H175.207C172.353 21.0532 170.033 18.7384 170.033 15.8797V5.47102C170.033 2.61737 172.348 0.297501 175.207 0.297501H200.997V5.48642H175.222Z" fill="#1DD882"/>
<path d="M64.9718 0.297501V21.0583H59.7778V13.3647H39.1966V21.0583H34.0077V0.297501H39.1966V7.99619H59.7778V0.297501H64.9718Z" fill="#1DD882"/>
<path d="M30.9641 0.297501V21.0583H22.7933C21.4178 21.0583 20.0987 20.5091 19.1287 19.534L15.4846 15.8694L11.8406 19.534C10.8706 20.5091 9.55151 21.0583 8.17601 21.0583H0V0.297501H5.00928V15.8694H6.53362C7.22137 15.8694 7.87833 15.5974 8.36078 15.1098L13.56 9.9106C14.5711 8.89951 16.2083 8.89951 17.2143 9.9106L22.4135 15.1098C22.8959 15.5922 23.558 15.8694 24.2406 15.8694H25.765V0.297501H30.9539H30.9641Z" fill="#1DD882"/>
</svg>
